<svg xmlns="http://www.w3.org/2000/svg" xmlns:xlink="http://www.w3.org/1999/xlink" width="70" zoomAndPan="magnify" viewBox="0 0 52.5 52.499999" height="70" preserveAspectRatio="xMidYMid meet" version="1.0"><defs><clipPath id="4707419f18"><path d="M 0 3.148438 L 51 3.148438 L 51 49 L 0 49 Z M 0 3.148438 " clip-rule="nonzero"/></clipPath></defs><g clip-path="url(#4707419f18)"><path fill="#e94e36" d="M 31.308594 3.097656 C 36.394531 9.96875 38.40625 18.140625 36.632812 25.484375 C 36.515625 26.074219 36.277344 26.789062 36.042969 27.378906 C 35.667969 27.167969 35.355469 26.976562 35.058594 26.765625 L 35.09375 26.789062 C 35.09375 26.789062 23.621094 19.683594 11.320312 7.242188 C 10.964844 6.890625 17.941406 17.191406 25.75 25.367188 C 22.082031 23.230469 11.675781 15.773438 5.167969 9.730469 C 5.878906 11.03125 6.941406 12.335938 8.007812 13.640625 C 13.449219 20.628906 20.546875 29.152344 29.0625 35.667969 C 23.03125 39.34375 14.632812 39.578125 6.113281 35.667969 C 3.984375 34.722656 2.210938 33.539062 0.199219 32.117188 C 3.746094 37.683594 9.308594 42.777344 15.933594 45.5 C 23.859375 48.9375 31.902344 48.699219 37.699219 45.5 L 37.816406 45.5 C 38.054688 45.382812 38.289062 45.265625 38.527344 45.027344 C 41.367188 43.605469 46.925781 42.066406 50 47.988281 C 50.828125 49.648438 52.367188 41.949219 46.570312 34.84375 C 46.6875 34.605469 46.6875 34.367188 46.804688 34.132812 C 49.644531 22.996094 42.902344 9.96875 31.308594 3.097656 Z M 31.308594 3.097656 " fill-opacity="1" fill-rule="nonzero"/></g></svg>